<?xml version="1.0" encoding="UTF-8" standalone="no"?><!DOCTYPE svg PUBLIC "-//W3C//DTD SVG 1.1//EN" "http://www.w3.org/Graphics/SVG/1.1/DTD/svg11.dtd"><svg width="100%" height="100%" viewBox="0 0 400 100" version="1.1" xmlns="http://www.w3.org/2000/svg" xmlns:xlink="http://www.w3.org/1999/xlink" xml:space="preserve" style="fill-rule:evenodd;clip-rule:evenodd;stroke-linejoin:round;stroke-miterlimit:1.41421;"><g id="Logo"><g><path d="M0,67.925l9.328,0l0,9.433l-9.328,0l0,-9.433Zm22.388,0l9.328,0l0,9.433l-9.328,0l0,-9.433Zm11.194,0l9.328,0l0,9.433l-9.328,0l0,-9.433Zm11.194,0l9.328,0l0,9.433l-9.328,0l0,-9.433Zm22.388,0l9.329,0l0,9.433l-9.329,0l0,-9.433Zm-67.164,-11.321l9.328,0l0,9.434l-9.328,0l0,-9.434Zm22.388,0l9.328,0l0,9.434l-9.328,0l0,-9.434Zm11.194,0l9.328,0l0,9.434l-9.328,0l0,-9.434Zm11.194,0l9.328,0l0,9.434l-9.328,0l0,-9.434Zm22.388,0l9.329,0l0,9.434l-9.329,0l0,-9.434Zm-67.164,22.641l9.328,0l0,9.434l-9.328,0l0,-9.434Zm55.97,0l9.329,0l0,9.434l-9.329,0l0,-9.434Zm11.194,0l9.329,0l0,9.434l-9.329,0l0,-9.434Zm-67.164,-45.283l9.328,0l0,9.434l-9.328,0l0,-9.434Zm22.388,0l9.328,0l0,9.434l-9.328,0l0,-9.434Zm11.194,0l9.328,0l0,9.434l-9.328,0l0,-9.434Zm11.194,0l9.328,0l0,9.434l-9.328,0l0,-9.434Zm22.388,0l9.329,0l0,9.434l-9.329,0l0,-9.434Zm-67.164,-11.32l9.328,0l0,9.433l-9.328,0l0,-9.433Zm22.388,0l9.328,0l0,9.433l-9.328,0l0,-9.433Zm11.194,0l9.328,0l0,9.433l-9.328,0l0,-9.433Zm11.194,0l9.328,0l0,9.433l-9.328,0l0,-9.433Zm22.388,0l9.329,0l0,9.433l-9.329,0l0,-9.433Zm-67.164,22.641l9.328,0l0,9.434l-9.328,0l0,-9.434Zm22.388,0l9.328,0l0,9.434l-9.328,0l0,-9.434Zm11.194,0l9.328,0l0,9.434l-9.328,0l0,-9.434Zm11.194,0l9.328,0l0,9.434l-9.328,0l0,-9.434Zm22.388,0l9.329,0l0,9.434l-9.329,0l0,-9.434Zm-67.164,-33.962l9.328,0l0,9.434l-9.328,0l0,-9.434Zm55.97,0l9.329,0l0,9.434l-9.329,0l0,-9.434Zm11.194,0l9.329,0l0,9.434l-9.329,0l0,-9.434Zm-67.164,-11.321l9.328,0l0,9.434l-9.328,0l0,-9.434Zm11.194,0l9.328,0l0,9.434l-9.328,0l0,-9.434Zm11.194,0l9.328,0l0,9.434l-9.328,0l0,-9.434Zm11.194,0l9.328,0l0,9.434l-9.328,0l0,-9.434Zm11.194,0l9.328,0l0,9.434l-9.328,0l0,-9.434Zm11.194,0l9.329,0l0,9.434l-9.329,0l0,-9.434Zm11.194,0l9.329,0l0,9.434l-9.329,0l0,-9.434Zm-67.164,90.566l9.328,0l0,9.434l-9.328,0l0,-9.434Zm11.194,0l9.328,0l0,9.434l-9.328,0l0,-9.434Zm11.194,0l9.328,0l0,9.434l-9.328,0l0,-9.434Zm11.194,0l9.328,0l0,9.434l-9.328,0l0,-9.434Zm11.194,0l9.328,0l0,9.434l-9.328,0l0,-9.434Zm11.194,0l9.329,0l0,9.434l-9.329,0l0,-9.434Zm11.194,0l9.329,0l0,9.434l-9.329,0l0,-9.434Z" style="fill:#fff;fill-rule:nonzero;"/><path d="M67.164,67.925l9.329,0l0,9.433l-9.329,0l0,-9.433Zm11.194,0l9.329,0l0,9.433l-9.329,0l0,-9.433Zm22.388,0l9.329,0l0,9.433l-9.329,0l0,-9.433Zm11.194,0l9.329,0l0,9.433l-9.329,0l0,-9.433Zm-44.776,-11.321l9.329,0l0,9.434l-9.329,0l0,-9.434Zm11.194,0l9.329,0l0,9.434l-9.329,0l0,-9.434Zm22.388,0l9.329,0l0,9.434l-9.329,0l0,-9.434Zm11.194,0l9.329,0l0,9.434l-9.329,0l0,-9.434Zm-44.776,22.641l9.329,0l0,9.434l-9.329,0l0,-9.434Zm44.776,0l9.329,0l0,9.434l-9.329,0l0,-9.434Zm-44.776,-45.283l9.329,0l0,9.434l-9.329,0l0,-9.434Zm11.194,0l9.329,0l0,9.434l-9.329,0l0,-9.434Zm22.388,0l9.329,0l0,9.434l-9.329,0l0,-9.434Zm11.194,0l9.329,0l0,9.434l-9.329,0l0,-9.434Zm-44.776,-11.32l9.329,0l0,9.433l-9.329,0l0,-9.433Zm11.194,0l9.329,0l0,9.433l-9.329,0l0,-9.433Zm22.388,0l9.329,0l0,9.433l-9.329,0l0,-9.433Zm11.194,0l9.329,0l0,9.433l-9.329,0l0,-9.433Zm-44.776,22.641l9.329,0l0,9.434l-9.329,0l0,-9.434Zm11.194,0l9.329,0l0,9.434l-9.329,0l0,-9.434Zm22.388,0l9.329,0l0,9.434l-9.329,0l0,-9.434Zm11.194,0l9.329,0l0,9.434l-9.329,0l0,-9.434Zm-44.776,-33.962l9.329,0l0,9.434l-9.329,0l0,-9.434Zm44.776,0l9.329,0l0,9.434l-9.329,0l0,-9.434Zm-44.776,-11.321l9.329,0l0,9.434l-9.329,0l0,-9.434Zm11.194,0l9.329,0l0,9.434l-9.329,0l0,-9.434Zm11.194,0l9.329,0l0,9.434l-9.329,0l0,-9.434Zm11.194,0l9.329,0l0,9.434l-9.329,0l0,-9.434Zm11.194,0l9.329,0l0,9.434l-9.329,0l0,-9.434Zm-44.776,90.566l9.329,0l0,9.434l-9.329,0l0,-9.434Zm11.194,0l9.329,0l0,9.434l-9.329,0l0,-9.434Zm11.194,0l9.329,0l0,9.434l-9.329,0l0,-9.434Zm11.194,0l9.329,0l0,9.434l-9.329,0l0,-9.434Zm11.194,0l9.329,0l0,9.434l-9.329,0l0,-9.434Z" style="fill:#fff;fill-rule:nonzero;"/><path d="M112.034,67.925l9.328,0l0,9.433l-9.328,0l0,-9.433Zm22.388,0l9.328,0l0,9.433l-9.328,0l0,-9.433Zm11.194,0l9.328,0l0,9.433l-9.328,0l0,-9.433Zm11.194,0l9.328,0l0,9.433l-9.328,0l0,-9.433Zm22.388,0l9.328,0l0,9.433l-9.328,0l0,-9.433Zm-67.164,-11.321l9.328,0l0,9.434l-9.328,0l0,-9.434Zm22.388,0l9.328,0l0,9.434l-9.328,0l0,-9.434Zm11.194,0l9.328,0l0,9.434l-9.328,0l0,-9.434Zm11.194,0l9.328,0l0,9.434l-9.328,0l0,-9.434Zm22.388,0l9.328,0l0,9.434l-9.328,0l0,-9.434Zm-67.164,22.641l9.328,0l0,9.434l-9.328,0l0,-9.434Zm11.194,0l9.328,0l0,9.434l-9.328,0l0,-9.434Zm44.776,0l9.328,0l0,9.434l-9.328,0l0,-9.434Zm11.194,0l9.328,0l0,9.434l-9.328,0l0,-9.434Zm-67.164,-45.283l9.328,0l0,9.434l-9.328,0l0,-9.434Zm22.388,0l9.328,0l0,9.434l-9.328,0l0,-9.434Zm11.194,0l9.328,0l0,9.434l-9.328,0l0,-9.434Zm11.194,0l9.328,0l0,9.434l-9.328,0l0,-9.434Zm11.194,0l9.328,0l0,9.434l-9.328,0l0,-9.434Zm11.194,0l9.328,0l0,9.434l-9.328,0l0,-9.434Zm-67.164,-11.32l9.328,0l0,9.433l-9.328,0l0,-9.433Zm22.388,0l9.328,0l0,9.433l-9.328,0l0,-9.433Zm11.194,0l9.328,0l0,9.433l-9.328,0l0,-9.433Zm11.194,0l9.328,0l0,9.433l-9.328,0l0,-9.433Zm22.388,0l9.328,0l0,9.433l-9.328,0l0,-9.433Zm-67.164,22.641l9.328,0l0,9.434l-9.328,0l0,-9.434Zm22.388,0l9.328,0l0,9.434l-9.328,0l0,-9.434Zm44.776,0l9.328,0l0,9.434l-9.328,0l0,-9.434Zm-67.164,-33.962l9.328,0l0,9.434l-9.328,0l0,-9.434Zm11.194,0l9.328,0l0,9.434l-9.328,0l0,-9.434Zm44.776,0l9.328,0l0,9.434l-9.328,0l0,-9.434Zm11.194,0l9.328,0l0,9.434l-9.328,0l0,-9.434Zm-67.164,-11.321l9.328,0l0,9.434l-9.328,0l0,-9.434Zm11.194,0l9.328,0l0,9.434l-9.328,0l0,-9.434Zm11.194,0l9.328,0l0,9.434l-9.328,0l0,-9.434Zm11.194,0l9.328,0l0,9.434l-9.328,0l0,-9.434Zm11.194,0l9.328,0l0,9.434l-9.328,0l0,-9.434Zm11.194,0l9.328,0l0,9.434l-9.328,0l0,-9.434Zm11.194,0l9.328,0l0,9.434l-9.328,0l0,-9.434Zm-67.164,90.566l9.328,0l0,9.434l-9.328,0l0,-9.434Zm11.194,0l9.328,0l0,9.434l-9.328,0l0,-9.434Zm11.194,0l9.328,0l0,9.434l-9.328,0l0,-9.434Zm11.194,0l9.328,0l0,9.434l-9.328,0l0,-9.434Zm11.194,0l9.328,0l0,9.434l-9.328,0l0,-9.434Zm11.194,0l9.328,0l0,9.434l-9.328,0l0,-9.434Zm11.194,0l9.328,0l0,9.434l-9.328,0l0,-9.434Z" style="fill:#fff;fill-rule:nonzero;"/><path d="M179.198,67.925l9.328,0l0,9.433l-9.328,0l0,-9.433Zm11.194,0l9.328,0l0,9.433l-9.328,0l0,-9.433Zm22.388,0l9.328,0l0,9.433l-9.328,0l0,-9.433Zm11.194,0l9.328,0l0,9.433l-9.328,0l0,-9.433Zm-44.776,-11.321l9.328,0l0,9.434l-9.328,0l0,-9.434Zm11.194,0l9.328,0l0,9.434l-9.328,0l0,-9.434Zm22.388,0l9.328,0l0,9.434l-9.328,0l0,-9.434Zm11.194,0l9.328,0l0,9.434l-9.328,0l0,-9.434Zm-44.776,22.641l9.328,0l0,9.434l-9.328,0l0,-9.434Zm44.776,0l9.328,0l0,9.434l-9.328,0l0,-9.434Zm-44.776,-45.283l9.328,0l0,9.434l-9.328,0l0,-9.434Zm11.194,0l9.328,0l0,9.434l-9.328,0l0,-9.434Zm22.388,0l9.328,0l0,9.434l-9.328,0l0,-9.434Zm11.194,0l9.328,0l0,9.434l-9.328,0l0,-9.434Zm-44.776,-11.32l9.328,0l0,9.433l-9.328,0l0,-9.433Zm11.194,0l9.328,0l0,9.433l-9.328,0l0,-9.433Zm22.388,0l9.328,0l0,9.433l-9.328,0l0,-9.433Zm11.194,0l9.328,0l0,9.433l-9.328,0l0,-9.433Zm-44.776,22.641l9.328,0l0,9.434l-9.328,0l0,-9.434Zm11.194,0l9.328,0l0,9.434l-9.328,0l0,-9.434Zm22.388,0l9.328,0l0,9.434l-9.328,0l0,-9.434Zm11.194,0l9.328,0l0,9.434l-9.328,0l0,-9.434Zm-44.776,-33.962l9.328,0l0,9.434l-9.328,0l0,-9.434Zm44.776,0l9.328,0l0,9.434l-9.328,0l0,-9.434Zm-44.776,-11.321l9.328,0l0,9.434l-9.328,0l0,-9.434Zm11.194,0l9.328,0l0,9.434l-9.328,0l0,-9.434Zm11.194,0l9.328,0l0,9.434l-9.328,0l0,-9.434Zm11.194,0l9.328,0l0,9.434l-9.328,0l0,-9.434Zm11.194,0l9.328,0l0,9.434l-9.328,0l0,-9.434Zm-44.776,90.566l9.328,0l0,9.434l-9.328,0l0,-9.434Zm11.194,0l9.328,0l0,9.434l-9.328,0l0,-9.434Zm11.194,0l9.328,0l0,9.434l-9.328,0l0,-9.434Zm11.194,0l9.328,0l0,9.434l-9.328,0l0,-9.434Zm11.194,0l9.328,0l0,9.434l-9.328,0l0,-9.434Z" style="fill:#fff;fill-rule:nonzero;"/></g><g><path d="M245.056,67.925l9.328,0l0,9.433l-9.328,0l0,-9.433Zm0,-11.321l9.328,0l0,9.434l-9.328,0l0,-9.434Zm0,22.641l9.328,0l0,9.434l-9.328,0l0,-9.434Zm11.194,0l9.328,0l0,9.434l-9.328,0l0,-9.434Zm11.194,0l9.328,0l0,9.434l-9.328,0l0,-9.434Zm11.194,0l9.328,0l0,9.434l-9.328,0l0,-9.434Zm-33.582,-45.283l9.328,0l0,9.434l-9.328,0l0,-9.434Zm0,-11.32l9.328,0l0,9.433l-9.328,0l0,-9.433Zm0,22.641l9.328,0l0,9.434l-9.328,0l0,-9.434Zm0,-33.962l9.328,0l0,9.434l-9.328,0l0,-9.434Z" style="fill:#fff;fill-rule:nonzero;"/><path d="M312.22,67.925l9.329,0l0,9.433l-9.329,0l0,-9.433Zm0,-11.321l9.329,0l0,9.434l-9.329,0l0,-9.434Zm-11.194,22.641l9.328,0l0,9.434l-9.328,0l0,-9.434Zm11.194,0l9.329,0l0,9.434l-9.329,0l0,-9.434Zm11.194,0l9.329,0l0,9.434l-9.329,0l0,-9.434Zm-11.194,-45.283l9.329,0l0,9.434l-9.329,0l0,-9.434Zm0,-11.32l9.329,0l0,9.433l-9.329,0l0,-9.433Zm0,22.641l9.329,0l0,9.434l-9.329,0l0,-9.434Zm-11.194,-33.962l9.328,0l0,9.434l-9.328,0l0,-9.434Zm11.194,0l9.329,0l0,9.434l-9.329,0l0,-9.434Zm11.194,0l9.329,0l0,9.434l-9.329,0l0,-9.434Z" style="fill:#fff;fill-rule:nonzero;"/><path d="M357.09,67.925l9.328,0l0,9.433l-9.328,0l0,-9.433Zm22.388,0l9.328,0l0,9.433l-9.328,0l0,-9.433Zm-33.582,-11.321l9.328,0l0,9.434l-9.328,0l0,-9.434Zm44.776,0l9.328,0l0,9.434l-9.328,0l0,-9.434Zm-22.388,22.641l9.328,0l0,9.434l-9.328,0l0,-9.434Zm-22.388,-45.283l9.328,0l0,9.434l-9.328,0l0,-9.434Zm44.776,0l9.328,0l0,9.434l-9.328,0l0,-9.434Zm-44.776,-11.32l9.328,0l0,9.433l-9.328,0l0,-9.433Zm44.776,0l9.328,0l0,9.433l-9.328,0l0,-9.433Zm-44.776,22.641l9.328,0l0,9.434l-9.328,0l0,-9.434Zm44.776,0l9.328,0l0,9.434l-9.328,0l0,-9.434Zm-44.776,-33.962l9.328,0l0,9.434l-9.328,0l0,-9.434Zm44.776,0l9.328,0l0,9.434l-9.328,0l0,-9.434Z" style="fill:#fff;fill-rule:nonzero;"/></g></g></svg>