<?xml version="1.0" encoding="UTF-8" standalone="no"?><!DOCTYPE svg PUBLIC "-//W3C//DTD SVG 1.1//EN" "http://www.w3.org/Graphics/SVG/1.1/DTD/svg11.dtd"><svg width="100%" height="100%" viewBox="0 0 512 18" version="1.1" xmlns="http://www.w3.org/2000/svg" xmlns:xlink="http://www.w3.org/1999/xlink" xml:space="preserve" style="fill-rule:evenodd;clip-rule:evenodd;stroke-linejoin:round;stroke-miterlimit:1.41421;"><g id="Claim"><path d="M0,13.171l2.226,0l0,2.195l-2.226,0l0,-2.195Zm0,-2.634l2.226,0l0,2.195l-2.226,0l0,-2.195Zm0,5.268l2.226,0l0,2.195l-2.226,0l0,-2.195Zm2.671,0l2.226,0l0,2.195l-2.226,0l0,-2.195Zm2.671,0l2.226,0l0,2.195l-2.226,0l0,-2.195Zm2.671,0l2.226,0l0,2.195l-2.226,0l0,-2.195Zm2.671,0l2.226,0l0,2.195l-2.226,0l0,-2.195Zm-10.684,-10.537l2.226,0l0,2.195l-2.226,0l0,-2.195Zm0,-2.634l2.226,0l0,2.195l-2.226,0l0,-2.195Zm0,5.268l2.226,0l0,2.196l-2.226,0l0,-2.196Zm2.671,0l2.226,0l0,2.196l-2.226,0l0,-2.196Zm2.671,0l2.226,0l0,2.196l-2.226,0l0,-2.196Zm2.671,0l2.226,0l0,2.196l-2.226,0l0,-2.196Zm-8.013,-7.902l2.226,0l0,2.195l-2.226,0l0,-2.195Zm2.671,0l2.226,0l0,2.195l-2.226,0l0,-2.195Zm2.671,0l2.226,0l0,2.195l-2.226,0l0,-2.195Zm2.671,0l2.226,0l0,2.195l-2.226,0l0,-2.195Zm2.671,0l2.226,0l0,2.195l-2.226,0l0,-2.195Z" style="fill:#fff;fill-opacity:0.4;fill-rule:nonzero;"/><path d="M16.026,13.171l2.226,0l0,2.195l-2.226,0l0,-2.195Zm10.684,0l2.225,0l0,2.195l-2.225,0l0,-2.195Zm-10.684,-2.634l2.226,0l0,2.195l-2.226,0l0,-2.195Zm8.013,0l2.225,0l0,2.195l-2.225,0l0,-2.195Zm2.671,0l2.225,0l0,2.195l-2.225,0l0,-2.195Zm-10.684,5.268l2.226,0l0,2.195l-2.226,0l0,-2.195Zm10.684,0l2.225,0l0,2.195l-2.225,0l0,-2.195Zm-10.684,-10.537l2.226,0l0,2.195l-2.226,0l0,-2.195Zm2.671,0l2.225,0l0,2.195l-2.225,0l0,-2.195Zm8.013,0l2.225,0l0,2.195l-2.225,0l0,-2.195Zm-10.684,-2.634l2.226,0l0,2.195l-2.226,0l0,-2.195Zm10.684,0l2.225,0l0,2.195l-2.225,0l0,-2.195Zm-10.684,5.268l2.226,0l0,2.196l-2.226,0l0,-2.196Zm5.342,0l2.225,0l0,2.196l-2.225,0l0,-2.196Zm5.342,0l2.225,0l0,2.196l-2.225,0l0,-2.196Zm-10.684,-7.902l2.226,0l0,2.195l-2.226,0l0,-2.195Zm10.684,0l2.225,0l0,2.195l-2.225,0l0,-2.195Z" style="fill:#fff;fill-opacity:0.4;fill-rule:nonzero;"/><path d="M43.18,13.171l2.226,0l0,2.195l-2.226,0l0,-2.195Zm8.013,0l2.226,0l0,2.195l-2.226,0l0,-2.195Zm-8.013,-2.634l2.226,0l0,2.195l-2.226,0l0,-2.195Zm5.342,0l2.226,0l0,2.195l-2.226,0l0,-2.195Zm-5.342,5.268l2.226,0l0,2.195l-2.226,0l0,-2.195Zm10.684,0l2.226,0l0,2.195l-2.226,0l0,-2.195Zm-10.684,-10.537l2.226,0l0,2.195l-2.226,0l0,-2.195Zm10.684,0l2.226,0l0,2.195l-2.226,0l0,-2.195Zm-10.684,-2.634l2.226,0l0,2.195l-2.226,0l0,-2.195Zm10.684,0l2.226,0l0,2.195l-2.226,0l0,-2.195Zm-10.684,5.268l2.226,0l0,2.196l-2.226,0l0,-2.196Zm2.671,0l2.226,0l0,2.196l-2.226,0l0,-2.196Zm2.671,0l2.226,0l0,2.196l-2.226,0l0,-2.196Zm2.671,0l2.226,0l0,2.196l-2.226,0l0,-2.196Zm-8.013,-7.902l2.226,0l0,2.195l-2.226,0l0,-2.195Zm2.671,0l2.226,0l0,2.195l-2.226,0l0,-2.195Zm2.671,0l2.226,0l0,2.195l-2.226,0l0,-2.195Zm2.671,0l2.226,0l0,2.195l-2.226,0l0,-2.195Z" style="fill:#fff;fill-opacity:0.4;fill-rule:nonzero;"/><path d="M59.206,13.171l2.226,0l0,2.195l-2.226,0l0,-2.195Zm0,-2.634l2.226,0l0,2.195l-2.226,0l0,-2.195Zm0,5.268l2.226,0l0,2.195l-2.226,0l0,-2.195Zm2.671,0l2.226,0l0,2.195l-2.226,0l0,-2.195Zm2.671,0l2.226,0l0,2.195l-2.226,0l0,-2.195Zm2.671,0l2.226,0l0,2.195l-2.226,0l0,-2.195Zm2.671,0l2.226,0l0,2.195l-2.226,0l0,-2.195Zm-10.684,-10.537l2.226,0l0,2.195l-2.226,0l0,-2.195Zm0,-2.634l2.226,0l0,2.195l-2.226,0l0,-2.195Zm0,5.268l2.226,0l0,2.196l-2.226,0l0,-2.196Zm2.671,0l2.226,0l0,2.196l-2.226,0l0,-2.196Zm2.671,0l2.226,0l0,2.196l-2.226,0l0,-2.196Zm2.671,0l2.226,0l0,2.196l-2.226,0l0,-2.196Zm-8.013,-7.902l2.226,0l0,2.195l-2.226,0l0,-2.195Zm2.671,0l2.226,0l0,2.195l-2.226,0l0,-2.195Zm2.671,0l2.226,0l0,2.195l-2.226,0l0,-2.195Zm2.671,0l2.226,0l0,2.195l-2.226,0l0,-2.195Zm2.671,0l2.226,0l0,2.195l-2.226,0l0,-2.195Z" style="fill:#fff;fill-opacity:0.4;fill-rule:nonzero;"/><path d="M85.916,13.171l2.226,0l0,2.195l-2.226,0l0,-2.195Zm0,-2.634l2.226,0l0,2.195l-2.226,0l0,-2.195Zm-10.684,5.268l2.226,0l0,2.195l-2.226,0l0,-2.195Zm2.671,0l2.226,0l0,2.195l-2.226,0l0,-2.195Zm2.671,0l2.226,0l0,2.195l-2.226,0l0,-2.195Zm2.671,0l2.226,0l0,2.195l-2.226,0l0,-2.195Zm-8.013,-10.537l2.226,0l0,2.195l-2.226,0l0,-2.195Zm0,-2.634l2.226,0l0,2.195l-2.226,0l0,-2.195Zm2.671,5.268l2.226,0l0,2.196l-2.226,0l0,-2.196Zm2.671,0l2.226,0l0,2.196l-2.226,0l0,-2.196Zm2.671,0l2.226,0l0,2.196l-2.226,0l0,-2.196Zm-5.342,-7.902l2.226,0l0,2.195l-2.226,0l0,-2.195Zm2.671,0l2.226,0l0,2.195l-2.226,0l0,-2.195Zm2.671,0l2.226,0l0,2.195l-2.226,0l0,-2.195Zm2.671,0l2.226,0l0,2.195l-2.226,0l0,-2.195Z" style="fill:#fff;fill-opacity:0.4;fill-rule:nonzero;"/><path d="M91.258,13.171l2.225,0l0,2.195l-2.225,0l0,-2.195Zm10.683,0l2.226,0l0,2.195l-2.226,0l0,-2.195Zm-10.683,-2.634l2.225,0l0,2.195l-2.225,0l0,-2.195Zm10.683,0l2.226,0l0,2.195l-2.226,0l0,-2.195Zm-10.683,5.268l2.225,0l0,2.195l-2.225,0l0,-2.195Zm10.683,0l2.226,0l0,2.195l-2.226,0l0,-2.195Zm-10.683,-10.537l2.225,0l0,2.195l-2.225,0l0,-2.195Zm10.683,0l2.226,0l0,2.195l-2.226,0l0,-2.195Zm-10.683,-2.634l2.225,0l0,2.195l-2.225,0l0,-2.195Zm10.683,0l2.226,0l0,2.195l-2.226,0l0,-2.195Zm-10.683,5.268l2.225,0l0,2.196l-2.225,0l0,-2.196Zm2.671,0l2.225,0l0,2.196l-2.225,0l0,-2.196Zm2.671,0l2.225,0l0,2.196l-2.225,0l0,-2.196Zm2.671,0l2.225,0l0,2.196l-2.225,0l0,-2.196Zm2.67,0l2.226,0l0,2.196l-2.226,0l0,-2.196Zm-8.012,-7.902l2.225,0l0,2.195l-2.225,0l0,-2.195Zm2.671,0l2.225,0l0,2.195l-2.225,0l0,-2.195Zm2.671,0l2.225,0l0,2.195l-2.225,0l0,-2.195Z" style="fill:#fff;fill-opacity:0.4;fill-rule:nonzero;"/><path d="M118.412,13.171l2.226,0l0,2.195l-2.226,0l0,-2.195Zm10.684,0l2.226,0l0,2.195l-2.226,0l0,-2.195Zm-10.684,-2.634l2.226,0l0,2.195l-2.226,0l0,-2.195Zm10.684,0l2.226,0l0,2.195l-2.226,0l0,-2.195Zm-8.013,5.268l2.226,0l0,2.195l-2.226,0l0,-2.195Zm2.671,0l2.226,0l0,2.195l-2.226,0l0,-2.195Zm2.671,0l2.226,0l0,2.195l-2.226,0l0,-2.195Zm-8.013,-10.537l2.226,0l0,2.195l-2.226,0l0,-2.195Zm0,-2.634l2.226,0l0,2.195l-2.226,0l0,-2.195Zm10.684,0l2.226,0l0,2.195l-2.226,0l0,-2.195Zm-10.684,5.268l2.226,0l0,2.196l-2.226,0l0,-2.196Zm5.342,0l2.226,0l0,2.196l-2.226,0l0,-2.196Zm2.671,0l2.226,0l0,2.196l-2.226,0l0,-2.196Zm2.671,0l2.226,0l0,2.196l-2.226,0l0,-2.196Zm-8.013,-7.902l2.226,0l0,2.195l-2.226,0l0,-2.195Zm2.671,0l2.226,0l0,2.195l-2.226,0l0,-2.195Zm2.671,0l2.226,0l0,2.195l-2.226,0l0,-2.195Z" style="fill:#fff;fill-opacity:0.4;fill-rule:nonzero;"/><path d="M134.438,13.171l2.226,0l0,2.195l-2.226,0l0,-2.195Zm0,-2.634l2.226,0l0,2.195l-2.226,0l0,-2.195Zm0,5.268l2.226,0l0,2.195l-2.226,0l0,-2.195Zm2.671,0l2.226,0l0,2.195l-2.226,0l0,-2.195Zm2.671,0l2.226,0l0,2.195l-2.226,0l0,-2.195Zm2.671,0l2.226,0l0,2.195l-2.226,0l0,-2.195Zm2.671,0l2.226,0l0,2.195l-2.226,0l0,-2.195Zm-10.684,-10.537l2.226,0l0,2.195l-2.226,0l0,-2.195Zm0,-2.634l2.226,0l0,2.195l-2.226,0l0,-2.195Zm0,5.268l2.226,0l0,2.196l-2.226,0l0,-2.196Zm2.671,0l2.226,0l0,2.196l-2.226,0l0,-2.196Zm2.671,0l2.226,0l0,2.196l-2.226,0l0,-2.196Zm2.671,0l2.226,0l0,2.196l-2.226,0l0,-2.196Zm-8.013,-7.902l2.226,0l0,2.195l-2.226,0l0,-2.195Zm2.671,0l2.226,0l0,2.195l-2.226,0l0,-2.195Zm2.671,0l2.226,0l0,2.195l-2.226,0l0,-2.195Zm2.671,0l2.226,0l0,2.195l-2.226,0l0,-2.195Zm2.671,0l2.226,0l0,2.195l-2.226,0l0,-2.195Z" style="fill:#fff;fill-opacity:0.4;fill-rule:nonzero;"/><path d="M150.464,13.171l2.226,0l0,2.195l-2.226,0l0,-2.195Zm10.684,0l2.225,0l0,2.195l-2.225,0l0,-2.195Zm-10.684,-2.634l2.226,0l0,2.195l-2.226,0l0,-2.195Zm8.013,0l2.226,0l0,2.195l-2.226,0l0,-2.195Zm2.671,0l2.225,0l0,2.195l-2.225,0l0,-2.195Zm-10.684,5.268l2.226,0l0,2.195l-2.226,0l0,-2.195Zm10.684,0l2.225,0l0,2.195l-2.225,0l0,-2.195Zm-10.684,-10.537l2.226,0l0,2.195l-2.226,0l0,-2.195Zm2.671,0l2.226,0l0,2.195l-2.226,0l0,-2.195Zm8.013,0l2.225,0l0,2.195l-2.225,0l0,-2.195Zm-10.684,-2.634l2.226,0l0,2.195l-2.226,0l0,-2.195Zm10.684,0l2.225,0l0,2.195l-2.225,0l0,-2.195Zm-10.684,5.268l2.226,0l0,2.196l-2.226,0l0,-2.196Zm5.342,0l2.226,0l0,2.196l-2.226,0l0,-2.196Zm5.342,0l2.225,0l0,2.196l-2.225,0l0,-2.196Zm-10.684,-7.902l2.226,0l0,2.195l-2.226,0l0,-2.195Zm10.684,0l2.225,0l0,2.195l-2.225,0l0,-2.195Z" style="fill:#fff;fill-opacity:0.4;fill-rule:nonzero;"/><path d="M166.49,13.171l2.225,0l0,2.195l-2.225,0l0,-2.195Zm10.683,0l2.226,0l0,2.195l-2.226,0l0,-2.195Zm-10.683,-2.634l2.225,0l0,2.195l-2.225,0l0,-2.195Zm10.683,0l2.226,0l0,2.195l-2.226,0l0,-2.195Zm-8.012,5.268l2.225,0l0,2.195l-2.225,0l0,-2.195Zm2.671,0l2.225,0l0,2.195l-2.225,0l0,-2.195Zm2.67,0l2.226,0l0,2.195l-2.226,0l0,-2.195Zm-8.012,-10.537l2.225,0l0,2.195l-2.225,0l0,-2.195Zm10.683,0l2.226,0l0,2.195l-2.226,0l0,-2.195Zm-10.683,-2.634l2.225,0l0,2.195l-2.225,0l0,-2.195Zm10.683,0l2.226,0l0,2.195l-2.226,0l0,-2.195Zm-10.683,5.268l2.225,0l0,2.196l-2.225,0l0,-2.196Zm10.683,0l2.226,0l0,2.196l-2.226,0l0,-2.196Zm-8.012,-7.902l2.225,0l0,2.195l-2.225,0l0,-2.195Zm2.671,0l2.225,0l0,2.195l-2.225,0l0,-2.195Zm2.67,0l2.226,0l0,2.195l-2.226,0l0,-2.195Z" style="fill:#fff;fill-opacity:0.4;fill-rule:nonzero;"/><path d="M182.515,13.171l2.226,0l0,2.195l-2.226,0l0,-2.195Zm10.684,0l2.226,0l0,2.195l-2.226,0l0,-2.195Zm-10.684,-2.634l2.226,0l0,2.195l-2.226,0l0,-2.195Zm10.684,0l2.226,0l0,2.195l-2.226,0l0,-2.195Zm-10.684,5.268l2.226,0l0,2.195l-2.226,0l0,-2.195Zm10.684,0l2.226,0l0,2.195l-2.226,0l0,-2.195Zm-10.684,-10.537l2.226,0l0,2.195l-2.226,0l0,-2.195Zm2.671,0l2.226,0l0,2.195l-2.226,0l0,-2.195Zm5.342,0l2.226,0l0,2.195l-2.226,0l0,-2.195Zm2.671,0l2.226,0l0,2.195l-2.226,0l0,-2.195Zm-10.684,-2.634l2.226,0l0,2.195l-2.226,0l0,-2.195Zm10.684,0l2.226,0l0,2.195l-2.226,0l0,-2.195Zm-10.684,5.268l2.226,0l0,2.196l-2.226,0l0,-2.196Zm5.342,0l2.226,0l0,2.196l-2.226,0l0,-2.196Zm5.342,0l2.226,0l0,2.196l-2.226,0l0,-2.196Zm-10.684,-7.902l2.226,0l0,2.195l-2.226,0l0,-2.195Zm10.684,0l2.226,0l0,2.195l-2.226,0l0,-2.195Z" style="fill:#fff;fill-opacity:0.4;fill-rule:nonzero;"/><path d="M209.67,13.171l2.226,0l0,2.195l-2.226,0l0,-2.195Zm10.684,0l2.226,0l0,2.195l-2.226,0l0,-2.195Zm-10.684,-2.634l2.226,0l0,2.195l-2.226,0l0,-2.195Zm10.684,0l2.226,0l0,2.195l-2.226,0l0,-2.195Zm-10.684,5.268l2.226,0l0,2.195l-2.226,0l0,-2.195Zm2.671,0l2.226,0l0,2.195l-2.226,0l0,-2.195Zm2.671,0l2.226,0l0,2.195l-2.226,0l0,-2.195Zm2.671,0l2.226,0l0,2.195l-2.226,0l0,-2.195Zm-8.013,-10.537l2.226,0l0,2.195l-2.226,0l0,-2.195Zm10.684,0l2.226,0l0,2.195l-2.226,0l0,-2.195Zm-10.684,-2.634l2.226,0l0,2.195l-2.226,0l0,-2.195Zm10.684,0l2.226,0l0,2.195l-2.226,0l0,-2.195Zm-10.684,5.268l2.226,0l0,2.196l-2.226,0l0,-2.196Zm10.684,0l2.226,0l0,2.196l-2.226,0l0,-2.196Zm-10.684,-7.902l2.226,0l0,2.195l-2.226,0l0,-2.195Zm2.671,0l2.226,0l0,2.195l-2.226,0l0,-2.195Zm2.671,0l2.226,0l0,2.195l-2.226,0l0,-2.195Zm2.671,0l2.226,0l0,2.195l-2.226,0l0,-2.195Z" style="fill:#fff;fill-opacity:0.4;fill-rule:nonzero;"/><path d="M225.696,13.171l2.226,0l0,2.195l-2.226,0l0,-2.195Zm10.684,0l2.225,0l0,2.195l-2.225,0l0,-2.195Zm-10.684,-2.634l2.226,0l0,2.195l-2.226,0l0,-2.195Zm10.684,0l2.225,0l0,2.195l-2.225,0l0,-2.195Zm-10.684,5.268l2.226,0l0,2.195l-2.226,0l0,-2.195Zm10.684,0l2.225,0l0,2.195l-2.225,0l0,-2.195Zm-10.684,-10.537l2.226,0l0,2.195l-2.226,0l0,-2.195Zm10.684,0l2.225,0l0,2.195l-2.225,0l0,-2.195Zm-10.684,-2.634l2.226,0l0,2.195l-2.226,0l0,-2.195Zm10.684,0l2.225,0l0,2.195l-2.225,0l0,-2.195Zm-10.684,5.268l2.226,0l0,2.196l-2.226,0l0,-2.196Zm2.671,0l2.226,0l0,2.196l-2.226,0l0,-2.196Zm2.671,0l2.225,0l0,2.196l-2.225,0l0,-2.196Zm2.671,0l2.225,0l0,2.196l-2.225,0l0,-2.196Zm2.671,0l2.225,0l0,2.196l-2.225,0l0,-2.196Zm-8.013,-7.902l2.226,0l0,2.195l-2.226,0l0,-2.195Zm2.671,0l2.225,0l0,2.195l-2.225,0l0,-2.195Zm2.671,0l2.225,0l0,2.195l-2.225,0l0,-2.195Z" style="fill:#fff;fill-opacity:0.4;fill-rule:nonzero;"/><path d="M241.722,13.171l2.225,0l0,2.195l-2.225,0l0,-2.195Zm10.683,0l2.226,0l0,2.195l-2.226,0l0,-2.195Zm-10.683,-2.634l2.225,0l0,2.195l-2.225,0l0,-2.195Zm10.683,0l2.226,0l0,2.195l-2.226,0l0,-2.195Zm-8.013,5.268l2.226,0l0,2.195l-2.226,0l0,-2.195Zm2.671,0l2.226,0l0,2.195l-2.226,0l0,-2.195Zm2.671,0l2.226,0l0,2.195l-2.226,0l0,-2.195Zm-8.012,-10.537l2.225,0l0,2.195l-2.225,0l0,-2.195Zm0,-2.634l2.225,0l0,2.195l-2.225,0l0,-2.195Zm10.683,0l2.226,0l0,2.195l-2.226,0l0,-2.195Zm-10.683,5.268l2.225,0l0,2.196l-2.225,0l0,-2.196Zm5.341,0l2.226,0l0,2.196l-2.226,0l0,-2.196Zm2.671,0l2.226,0l0,2.196l-2.226,0l0,-2.196Zm2.671,0l2.226,0l0,2.196l-2.226,0l0,-2.196Zm-8.013,-7.902l2.226,0l0,2.195l-2.226,0l0,-2.195Zm2.671,0l2.226,0l0,2.195l-2.226,0l0,-2.195Zm2.671,0l2.226,0l0,2.195l-2.226,0l0,-2.195Z" style="fill:#fff;fill-opacity:0.4;fill-rule:nonzero;"/><path d="M257.747,13.171l2.226,0l0,2.195l-2.226,0l0,-2.195Zm0,-2.634l2.226,0l0,2.195l-2.226,0l0,-2.195Zm0,5.268l2.226,0l0,2.195l-2.226,0l0,-2.195Zm2.671,0l2.226,0l0,2.195l-2.226,0l0,-2.195Zm2.671,0l2.226,0l0,2.195l-2.226,0l0,-2.195Zm2.671,0l2.226,0l0,2.195l-2.226,0l0,-2.195Zm2.671,0l2.226,0l0,2.195l-2.226,0l0,-2.195Zm-10.684,-10.537l2.226,0l0,2.195l-2.226,0l0,-2.195Zm0,-2.634l2.226,0l0,2.195l-2.226,0l0,-2.195Zm0,5.268l2.226,0l0,2.196l-2.226,0l0,-2.196Zm2.671,0l2.226,0l0,2.196l-2.226,0l0,-2.196Zm2.671,0l2.226,0l0,2.196l-2.226,0l0,-2.196Zm2.671,0l2.226,0l0,2.196l-2.226,0l0,-2.196Zm-8.013,-7.902l2.226,0l0,2.195l-2.226,0l0,-2.195Zm2.671,0l2.226,0l0,2.195l-2.226,0l0,-2.195Zm2.671,0l2.226,0l0,2.195l-2.226,0l0,-2.195Zm2.671,0l2.226,0l0,2.195l-2.226,0l0,-2.195Zm2.671,0l2.226,0l0,2.195l-2.226,0l0,-2.195Z" style="fill:#fff;fill-opacity:0.4;fill-rule:nonzero;"/><path d="M273.773,13.171l2.226,0l0,2.195l-2.226,0l0,-2.195Zm10.684,0l2.226,0l0,2.195l-2.226,0l0,-2.195Zm-10.684,-2.634l2.226,0l0,2.195l-2.226,0l0,-2.195Zm8.013,0l2.226,0l0,2.195l-2.226,0l0,-2.195Zm2.671,0l2.226,0l0,2.195l-2.226,0l0,-2.195Zm-10.684,5.268l2.226,0l0,2.195l-2.226,0l0,-2.195Zm10.684,0l2.226,0l0,2.195l-2.226,0l0,-2.195Zm-10.684,-10.537l2.226,0l0,2.195l-2.226,0l0,-2.195Zm2.671,0l2.226,0l0,2.195l-2.226,0l0,-2.195Zm8.013,0l2.226,0l0,2.195l-2.226,0l0,-2.195Zm-10.684,-2.634l2.226,0l0,2.195l-2.226,0l0,-2.195Zm10.684,0l2.226,0l0,2.195l-2.226,0l0,-2.195Zm-10.684,5.268l2.226,0l0,2.196l-2.226,0l0,-2.196Zm5.342,0l2.226,0l0,2.196l-2.226,0l0,-2.196Zm5.342,0l2.226,0l0,2.196l-2.226,0l0,-2.196Zm-10.684,-7.902l2.226,0l0,2.195l-2.226,0l0,-2.195Zm10.684,0l2.226,0l0,2.195l-2.226,0l0,-2.195Z" style="fill:#fff;fill-opacity:0.4;fill-rule:nonzero;"/><path d="M300.483,13.171l2.225,0l0,2.195l-2.225,0l0,-2.195Zm0,-2.634l2.225,0l0,2.195l-2.225,0l0,-2.195Zm-10.684,5.268l2.226,0l0,2.195l-2.226,0l0,-2.195Zm2.671,0l2.225,0l0,2.195l-2.225,0l0,-2.195Zm2.671,0l2.225,0l0,2.195l-2.225,0l0,-2.195Zm2.671,0l2.225,0l0,2.195l-2.225,0l0,-2.195Zm-8.013,-10.537l2.226,0l0,2.195l-2.226,0l0,-2.195Zm0,-2.634l2.226,0l0,2.195l-2.226,0l0,-2.195Zm2.671,5.268l2.225,0l0,2.196l-2.225,0l0,-2.196Zm2.671,0l2.225,0l0,2.196l-2.225,0l0,-2.196Zm2.671,0l2.225,0l0,2.196l-2.225,0l0,-2.196Zm-5.342,-7.902l2.225,0l0,2.195l-2.225,0l0,-2.195Zm2.671,0l2.225,0l0,2.195l-2.225,0l0,-2.195Zm2.671,0l2.225,0l0,2.195l-2.225,0l0,-2.195Zm2.671,0l2.225,0l0,2.195l-2.225,0l0,-2.195Z" style="fill:#fff;fill-opacity:0.4;fill-rule:nonzero;"/><path d="M316.953,13.171l2.226,0l0,2.195l-2.226,0l0,-2.195Zm10.684,0l2.226,0l0,2.195l-2.226,0l0,-2.195Zm-10.684,-2.634l2.226,0l0,2.195l-2.226,0l0,-2.195Zm10.684,0l2.226,0l0,2.195l-2.226,0l0,-2.195Zm-10.684,5.268l2.226,0l0,2.195l-2.226,0l0,-2.195Zm2.671,0l2.226,0l0,2.195l-2.226,0l0,-2.195Zm2.671,0l2.226,0l0,2.195l-2.226,0l0,-2.195Zm2.671,0l2.226,0l0,2.195l-2.226,0l0,-2.195Zm-8.013,-10.537l2.226,0l0,2.195l-2.226,0l0,-2.195Zm10.684,0l2.226,0l0,2.195l-2.226,0l0,-2.195Zm-10.684,-2.634l2.226,0l0,2.195l-2.226,0l0,-2.195Zm10.684,0l2.226,0l0,2.195l-2.226,0l0,-2.195Zm-10.684,5.268l2.226,0l0,2.196l-2.226,0l0,-2.196Zm10.684,0l2.226,0l0,2.196l-2.226,0l0,-2.196Zm-10.684,-7.902l2.226,0l0,2.195l-2.226,0l0,-2.195Zm2.671,0l2.226,0l0,2.195l-2.226,0l0,-2.195Zm2.671,0l2.226,0l0,2.195l-2.226,0l0,-2.195Zm2.671,0l2.226,0l0,2.195l-2.226,0l0,-2.195Z" style="fill:#fff;fill-opacity:0.4;fill-rule:nonzero;"/><path d="M335.65,13.171l2.226,0l0,2.195l-2.226,0l0,-2.195Zm0,-2.634l2.226,0l0,2.195l-2.226,0l0,-2.195Zm-2.671,5.268l2.226,0l0,2.195l-2.226,0l0,-2.195Zm2.671,0l2.226,0l0,2.195l-2.226,0l0,-2.195Zm2.671,0l2.226,0l0,2.195l-2.226,0l0,-2.195Zm-2.671,-10.537l2.226,0l0,2.195l-2.226,0l0,-2.195Zm0,-2.634l2.226,0l0,2.195l-2.226,0l0,-2.195Zm0,5.268l2.226,0l0,2.196l-2.226,0l0,-2.196Zm-2.671,-7.902l2.226,0l0,2.195l-2.226,0l0,-2.195Zm2.671,0l2.226,0l0,2.195l-2.226,0l0,-2.195Zm2.671,0l2.226,0l0,2.195l-2.226,0l0,-2.195Z" style="fill:#fff;fill-opacity:0.4;fill-rule:nonzero;"/><path d="M343.685,13.171l2.226,0l0,2.195l-2.226,0l0,-2.195Zm10.684,0l2.226,0l0,2.195l-2.226,0l0,-2.195Zm-10.684,-2.634l2.226,0l0,2.195l-2.226,0l0,-2.195Zm10.684,0l2.226,0l0,2.195l-2.226,0l0,-2.195Zm-8.013,5.268l2.226,0l0,2.195l-2.226,0l0,-2.195Zm2.671,0l2.226,0l0,2.195l-2.226,0l0,-2.195Zm2.671,0l2.226,0l0,2.195l-2.226,0l0,-2.195Zm-8.013,-10.537l2.226,0l0,2.195l-2.226,0l0,-2.195Zm0,-2.634l2.226,0l0,2.195l-2.226,0l0,-2.195Zm10.684,0l2.226,0l0,2.195l-2.226,0l0,-2.195Zm-10.684,5.268l2.226,0l0,2.196l-2.226,0l0,-2.196Zm5.342,0l2.226,0l0,2.196l-2.226,0l0,-2.196Zm2.671,0l2.226,0l0,2.196l-2.226,0l0,-2.196Zm2.671,0l2.226,0l0,2.196l-2.226,0l0,-2.196Zm-8.013,-7.902l2.226,0l0,2.195l-2.226,0l0,-2.195Zm2.671,0l2.226,0l0,2.195l-2.226,0l0,-2.195Zm2.671,0l2.226,0l0,2.195l-2.226,0l0,-2.195Z" style="fill:#fff;fill-opacity:0.4;fill-rule:nonzero;"/><path d="M362.382,13.171l2.226,0l0,2.195l-2.226,0l0,-2.195Zm0,-2.634l2.226,0l0,2.195l-2.226,0l0,-2.195Zm-2.671,5.268l2.226,0l0,2.195l-2.226,0l0,-2.195Zm2.671,0l2.226,0l0,2.195l-2.226,0l0,-2.195Zm2.671,0l2.226,0l0,2.195l-2.226,0l0,-2.195Zm-2.671,-10.537l2.226,0l0,2.195l-2.226,0l0,-2.195Zm0,-2.634l2.226,0l0,2.195l-2.226,0l0,-2.195Zm0,5.268l2.226,0l0,2.196l-2.226,0l0,-2.196Zm-2.671,-7.902l2.226,0l0,2.195l-2.226,0l0,-2.195Zm2.671,0l2.226,0l0,2.195l-2.226,0l0,-2.195Zm2.671,0l2.226,0l0,2.195l-2.226,0l0,-2.195Z" style="fill:#fff;fill-opacity:0.4;fill-rule:nonzero;"/><path d="M375.759,13.171l2.226,0l0,2.195l-2.226,0l0,-2.195Zm0,-2.634l2.226,0l0,2.195l-2.226,0l0,-2.195Zm0,5.268l2.226,0l0,2.195l-2.226,0l0,-2.195Zm0,-10.537l2.226,0l0,2.195l-2.226,0l0,-2.195Zm0,-2.634l2.226,0l0,2.195l-2.226,0l0,-2.195Zm0,5.268l2.226,0l0,2.196l-2.226,0l0,-2.196Zm-5.342,-7.902l2.226,0l0,2.195l-2.226,0l0,-2.195Zm2.671,0l2.226,0l0,2.195l-2.226,0l0,-2.195Zm2.671,0l2.226,0l0,2.195l-2.226,0l0,-2.195Zm2.671,0l2.226,0l0,2.195l-2.226,0l0,-2.195Zm2.671,0l2.226,0l0,2.195l-2.226,0l0,-2.195Z" style="fill:#fff;fill-opacity:0.4;fill-rule:nonzero;"/><path d="M386.443,13.171l2.226,0l0,2.195l-2.226,0l0,-2.195Zm10.684,0l2.225,0l0,2.195l-2.225,0l0,-2.195Zm-10.684,-2.634l2.226,0l0,2.195l-2.226,0l0,-2.195Zm10.684,0l2.225,0l0,2.195l-2.225,0l0,-2.195Zm-10.684,5.268l2.226,0l0,2.195l-2.226,0l0,-2.195Zm10.684,0l2.225,0l0,2.195l-2.225,0l0,-2.195Zm-10.684,-10.537l2.226,0l0,2.195l-2.226,0l0,-2.195Zm10.684,0l2.225,0l0,2.195l-2.225,0l0,-2.195Zm-10.684,-2.634l2.226,0l0,2.195l-2.226,0l0,-2.195Zm10.684,0l2.225,0l0,2.195l-2.225,0l0,-2.195Zm-10.684,5.268l2.226,0l0,2.196l-2.226,0l0,-2.196Zm2.671,0l2.226,0l0,2.196l-2.226,0l0,-2.196Zm2.671,0l2.226,0l0,2.196l-2.226,0l0,-2.196Zm2.671,0l2.225,0l0,2.196l-2.225,0l0,-2.196Zm2.671,0l2.225,0l0,2.196l-2.225,0l0,-2.196Zm-8.013,-7.902l2.226,0l0,2.195l-2.226,0l0,-2.195Zm2.671,0l2.226,0l0,2.195l-2.226,0l0,-2.195Zm2.671,0l2.225,0l0,2.195l-2.225,0l0,-2.195Z" style="fill:#fff;fill-opacity:0.4;fill-rule:nonzero;"/><path d="M402.469,13.171l2.225,0l0,2.195l-2.225,0l0,-2.195Zm0,-2.634l2.225,0l0,2.195l-2.225,0l0,-2.195Zm0,5.268l2.225,0l0,2.195l-2.225,0l0,-2.195Zm2.671,0l2.225,0l0,2.195l-2.225,0l0,-2.195Zm2.67,0l2.226,0l0,2.195l-2.226,0l0,-2.195Zm2.671,0l2.226,0l0,2.195l-2.226,0l0,-2.195Zm-8.012,-10.537l2.225,0l0,2.195l-2.225,0l0,-2.195Zm0,-2.634l2.225,0l0,2.195l-2.225,0l0,-2.195Zm0,5.268l2.225,0l0,2.196l-2.225,0l0,-2.196Zm0,-7.902l2.225,0l0,2.195l-2.225,0l0,-2.195Z" style="fill:#fff;fill-opacity:0.4;fill-rule:nonzero;"/><path d="M415.823,13.171l2.226,0l0,2.195l-2.226,0l0,-2.195Zm10.684,0l2.226,0l0,2.195l-2.226,0l0,-2.195Zm-10.684,-2.634l2.226,0l0,2.195l-2.226,0l0,-2.195Zm10.684,0l2.226,0l0,2.195l-2.226,0l0,-2.195Zm-10.684,5.268l2.226,0l0,2.195l-2.226,0l0,-2.195Zm10.684,0l2.226,0l0,2.195l-2.226,0l0,-2.195Zm-10.684,-10.537l2.226,0l0,2.195l-2.226,0l0,-2.195Zm10.684,0l2.226,0l0,2.195l-2.226,0l0,-2.195Zm-10.684,-2.634l2.226,0l0,2.195l-2.226,0l0,-2.195Zm10.684,0l2.226,0l0,2.195l-2.226,0l0,-2.195Zm-10.684,5.268l2.226,0l0,2.196l-2.226,0l0,-2.196Zm2.671,0l2.226,0l0,2.196l-2.226,0l0,-2.196Zm2.671,0l2.226,0l0,2.196l-2.226,0l0,-2.196Zm2.671,0l2.226,0l0,2.196l-2.226,0l0,-2.196Zm2.671,0l2.226,0l0,2.196l-2.226,0l0,-2.196Zm-8.013,-7.902l2.226,0l0,2.195l-2.226,0l0,-2.195Zm2.671,0l2.226,0l0,2.195l-2.226,0l0,-2.195Zm2.671,0l2.226,0l0,2.195l-2.226,0l0,-2.195Z" style="fill:#fff;fill-opacity:0.4;fill-rule:nonzero;"/><path d="M442.978,13.171l2.226,0l0,2.195l-2.226,0l0,-2.195Zm0,-2.634l2.226,0l0,2.195l-2.226,0l0,-2.195Zm0,5.268l2.226,0l0,2.195l-2.226,0l0,-2.195Zm2.671,0l2.226,0l0,2.195l-2.226,0l0,-2.195Zm2.671,0l2.226,0l0,2.195l-2.226,0l0,-2.195Zm2.671,0l2.226,0l0,2.195l-2.226,0l0,-2.195Zm-8.013,-10.537l2.226,0l0,2.195l-2.226,0l0,-2.195Zm0,-2.634l2.226,0l0,2.195l-2.226,0l0,-2.195Zm0,5.268l2.226,0l0,2.196l-2.226,0l0,-2.196Zm0,-7.902l2.226,0l0,2.195l-2.226,0l0,-2.195Z" style="fill:#fff;fill-opacity:0.4;fill-rule:nonzero;"/><path d="M459.004,13.171l2.226,0l0,2.195l-2.226,0l0,-2.195Zm0,-2.634l2.226,0l0,2.195l-2.226,0l0,-2.195Zm-2.671,5.268l2.226,0l0,2.195l-2.226,0l0,-2.195Zm2.671,0l2.226,0l0,2.195l-2.226,0l0,-2.195Zm2.671,0l2.226,0l0,2.195l-2.226,0l0,-2.195Zm-2.671,-10.537l2.226,0l0,2.195l-2.226,0l0,-2.195Zm0,-2.634l2.226,0l0,2.195l-2.226,0l0,-2.195Zm0,5.268l2.226,0l0,2.196l-2.226,0l0,-2.196Zm-2.671,-7.902l2.226,0l0,2.195l-2.226,0l0,-2.195Zm2.671,0l2.226,0l0,2.195l-2.226,0l0,-2.195Zm2.671,0l2.226,0l0,2.195l-2.226,0l0,-2.195Z" style="fill:#fff;fill-opacity:0.4;fill-rule:nonzero;"/><path d="M469.71,13.171l2.226,0l0,2.195l-2.226,0l0,-2.195Zm5.342,0l2.226,0l0,2.195l-2.226,0l0,-2.195Zm-8.013,-2.634l2.226,0l0,2.195l-2.226,0l0,-2.195Zm10.684,0l2.226,0l0,2.195l-2.226,0l0,-2.195Zm-5.342,5.268l2.226,0l0,2.195l-2.226,0l0,-2.195Zm-5.342,-10.537l2.226,0l0,2.195l-2.226,0l0,-2.195Zm10.684,0l2.226,0l0,2.195l-2.226,0l0,-2.195Zm-10.684,-2.634l2.226,0l0,2.195l-2.226,0l0,-2.195Zm10.684,0l2.226,0l0,2.195l-2.226,0l0,-2.195Zm-10.684,5.268l2.226,0l0,2.196l-2.226,0l0,-2.196Zm10.684,0l2.226,0l0,2.196l-2.226,0l0,-2.196Zm-10.684,-7.902l2.226,0l0,2.195l-2.226,0l0,-2.195Zm10.684,0l2.226,0l0,2.195l-2.226,0l0,-2.195Z" style="fill:#fff;fill-opacity:0.4;fill-rule:nonzero;"/><path d="M483.065,13.171l2.225,0l0,2.195l-2.225,0l0,-2.195Zm0,-2.634l2.225,0l0,2.195l-2.225,0l0,-2.195Zm0,5.268l2.225,0l0,2.195l-2.225,0l0,-2.195Zm2.671,0l2.225,0l0,2.195l-2.225,0l0,-2.195Zm2.671,0l2.225,0l0,2.195l-2.225,0l0,-2.195Zm2.671,0l2.225,0l0,2.195l-2.225,0l0,-2.195Zm2.67,0l2.226,0l0,2.195l-2.226,0l0,-2.195Zm-10.683,-10.537l2.225,0l0,2.195l-2.225,0l0,-2.195Zm0,-2.634l2.225,0l0,2.195l-2.225,0l0,-2.195Zm0,5.268l2.225,0l0,2.196l-2.225,0l0,-2.196Zm2.671,0l2.225,0l0,2.196l-2.225,0l0,-2.196Zm2.671,0l2.225,0l0,2.196l-2.225,0l0,-2.196Zm2.671,0l2.225,0l0,2.196l-2.225,0l0,-2.196Zm-8.013,-7.902l2.225,0l0,2.195l-2.225,0l0,-2.195Zm2.671,0l2.225,0l0,2.195l-2.225,0l0,-2.195Zm2.671,0l2.225,0l0,2.195l-2.225,0l0,-2.195Zm2.671,0l2.225,0l0,2.195l-2.225,0l0,-2.195Zm2.67,0l2.226,0l0,2.195l-2.226,0l0,-2.195Z" style="fill:#fff;fill-opacity:0.4;fill-rule:nonzero;"/><path d="M504.432,13.171l2.226,0l0,2.195l-2.226,0l0,-2.195Zm0,-2.634l2.226,0l0,2.195l-2.226,0l0,-2.195Zm0,5.268l2.226,0l0,2.195l-2.226,0l0,-2.195Zm0,-10.537l2.226,0l0,2.195l-2.226,0l0,-2.195Zm0,-2.634l2.226,0l0,2.195l-2.226,0l0,-2.195Zm0,5.268l2.226,0l0,2.196l-2.226,0l0,-2.196Zm-5.342,-7.902l2.226,0l0,2.195l-2.226,0l0,-2.195Zm2.671,0l2.226,0l0,2.195l-2.226,0l0,-2.195Zm2.671,0l2.226,0l0,2.195l-2.226,0l0,-2.195Zm2.671,0l2.226,0l0,2.195l-2.226,0l0,-2.195Zm2.671,0l2.226,0l0,2.195l-2.226,0l0,-2.195Z" style="fill:#fff;fill-opacity:0.4;fill-rule:nonzero;"/></g></svg>