<?xml version="1.0" encoding="UTF-8" standalone="no"?><!DOCTYPE svg PUBLIC "-//W3C//DTD SVG 1.1//EN" "http://www.w3.org/Graphics/SVG/1.1/DTD/svg11.dtd"><svg width="100%" height="100%" viewBox="0 0 16 16" version="1.1" xmlns="http://www.w3.org/2000/svg" xmlns:xlink="http://www.w3.org/1999/xlink" xml:space="preserve" style="fill-rule:evenodd;clip-rule:evenodd;stroke-linejoin:round;stroke-miterlimit:1.41421;"><g><path d="M2.213,11.573c1.222,0 2.213,0.988 2.213,2.204c0,1.218 -0.991,2.205 -2.213,2.205c-1.223,0 -2.213,-0.987 -2.213,-2.205c0,-1.216 0.99,-2.204 2.213,-2.204Z" style="fill:#fff;fill-rule:nonzero;"/><path d="M0.001,8.503c4.119,0 7.481,3.327 7.481,7.495l3.078,0c0,-5.824 -4.735,-10.562 -10.559,-10.562l0,3.067Z" style="fill:#fff;fill-rule:nonzero;"/><path d="M0.006,3.067c7.121,0 12.916,5.804 12.916,12.933l3.078,0c0,-8.823 -7.176,-16 -15.994,-16l0,3.067Z" style="fill:#fff;fill-rule:nonzero;"/></g></svg>