<?xml version="1.0" encoding="UTF-8" standalone="no"?><!DOCTYPE svg PUBLIC "-//W3C//DTD SVG 1.1//EN" "http://www.w3.org/Graphics/SVG/1.1/DTD/svg11.dtd"><svg width="100%" height="100%" viewBox="0 0 18 15" version="1.1" xmlns="http://www.w3.org/2000/svg" xmlns:xlink="http://www.w3.org/1999/xlink" xml:space="preserve" style="fill-rule:evenodd;clip-rule:evenodd;stroke-linejoin:round;stroke-miterlimit:1.41421;"><path d="M5.661,15c6.794,0 10.508,-5.771 10.508,-10.775c0,-0.163 -0.002,-0.327 -0.011,-0.489c0.722,-0.534 1.348,-1.203 1.842,-1.961c-0.661,0.301 -1.374,0.504 -2.12,0.596c0.763,-0.469 1.347,-1.211 1.624,-2.094c-0.713,0.433 -1.504,0.749 -2.345,0.92c-0.676,-0.737 -1.633,-1.197 -2.696,-1.197c-2.04,0 -3.692,1.696 -3.692,3.785c0,0.298 0.032,0.586 0.094,0.865c-3.069,-0.16 -5.792,-1.666 -7.612,-3.957c-0.317,0.559 -0.5,1.209 -0.5,1.902c0,1.314 0.651,2.473 1.644,3.153c-0.606,-0.019 -1.176,-0.19 -1.673,-0.474c-0.001,0.017 -0.001,0.032 -0.001,0.048c0,1.835 1.273,3.366 2.961,3.712c-0.308,0.086 -0.635,0.134 -0.971,0.134c-0.239,0 -0.47,-0.025 -0.695,-0.07c0.471,1.507 1.835,2.601 3.449,2.632c-1.263,1.016 -2.856,1.621 -4.586,1.621c-0.298,0 -0.591,-0.018 -0.881,-0.053c1.634,1.075 3.575,1.702 5.661,1.702Z" style="fill:#fff;fill-rule:nonzero;"/></svg>